<svg width="18" height="18" viewBox="0 0 18 18" fill="none" xmlns="http://www.w3.org/2000/svg">
<path d="M15.2731 9.53026C15.4137 9.38962 15.4927 9.19889 15.4927 9.00001C15.4927 8.80114 15.4137 8.61041 15.2731 8.46976L11.0303 4.22701C10.9612 4.15538 10.8784 4.09824 10.7869 4.05894C10.6954 4.01963 10.597 3.99894 10.4974 3.99807C10.3978 3.99721 10.299 4.01619 10.2069 4.0539C10.1147 4.09161 10.031 4.1473 9.96054 4.21772C9.89012 4.28814 9.83443 4.37187 9.79672 4.46405C9.75901 4.55622 9.74003 4.65498 9.7409 4.75456C9.74176 4.85415 9.76245 4.95256 9.80176 5.04407C9.84107 5.13557 9.8982 5.21833 9.96984 5.28751L12.9323 8.25001L3.00009 8.25001C2.80117 8.25001 2.61041 8.32903 2.46976 8.46968C2.3291 8.61033 2.25009 8.8011 2.25009 9.00001C2.25009 9.19892 2.3291 9.38969 2.46976 9.53034C2.61041 9.67099 2.80117 9.75001 3.00009 9.75001L12.9323 9.75001L9.96984 12.7125C9.83322 12.854 9.75762 13.0434 9.75933 13.2401C9.76104 13.4367 9.83992 13.6248 9.97897 13.7639C10.118 13.9029 10.3061 13.9818 10.5028 13.9835C10.6994 13.9852 10.8889 13.9096 11.0303 13.773L15.2731 9.53026Z" fill="black"/>
</svg>
